<svg id="Capa_1" data-name="Capa 1" xmlns="http://www.w3.org/2000/svg" xmlns:xlink="http://www.w3.org/1999/xlink" viewBox="0 0 1920 1080"><defs><style>.cls-1{opacity:0.2;}.cls-1,.cls-4{filter:url(#AI_Sombra_1);}.cls-2{fill:#fff;}.cls-3{fill:none;stroke:#000;stroke-miterlimit:10;stroke-width:10px;}.cls-4{opacity:0.21;}</style><filter id="AI_Sombra_1" name="AI_Sombra_1"><feGaussianBlur result="blur" stdDeviation="2" in="SourceAlpha"/><feOffset result="offsetBlurredAlpha" dx="4" dy="4" in="blur"/><feMerge><feMergeNode in="offsetBlurredAlpha"/><feMergeNode in="SourceGraphic"/></feMerge></filter></defs><g class="cls-1"><ellipse class="cls-2" cx="790" cy="506.89" rx="1212.5" ry="1223.94"/><ellipse class="cls-3" cx="790" cy="506.89" rx="1212.5" ry="1223.94"/></g><g class="cls-1"><ellipse class="cls-2" cx="776" cy="503.62" rx="1179.5" ry="1190.63"/><ellipse class="cls-3" cx="776" cy="503.62" rx="1179.5" ry="1190.63"/></g><g class="cls-1"><ellipse class="cls-2" cx="776.5" cy="516.76" rx="1139" ry="1149.75"/><ellipse class="cls-3" cx="776.5" cy="516.76" rx="1139" ry="1149.75"/></g><g class="cls-1"><ellipse class="cls-2" cx="768.5" cy="526.42" rx="1104" ry="1114.42"/><ellipse class="cls-3" cx="768.5" cy="526.42" rx="1104" ry="1114.42"/></g><g class="cls-1"><ellipse class="cls-2" cx="769" cy="532.5" rx="1058.51" ry="1068.5"/><ellipse class="cls-3" cx="769" cy="532.5" rx="1058.51" ry="1068.5"/></g><g class="cls-1"><ellipse class="cls-2" cx="754.99" cy="538.6" rx="1019.51" ry="1044.26"/><ellipse class="cls-3" cx="754.99" cy="538.6" rx="1019.51" ry="1044.26"/></g><g class="cls-1"><ellipse class="cls-2" cx="707.47" cy="521.59" rx="1012.03" ry="1021.58"/><ellipse class="cls-3" cx="707.47" cy="521.59" rx="1012.03" ry="1021.58"/></g><g class="cls-1"><circle class="cls-2" cx="723.01" cy="509.57" r="944.56"/><circle class="cls-3" cx="723.01" cy="509.57" r="944.56"/></g><g class="cls-1"><circle class="cls-2" cx="750" cy="505.51" r="851.51"/><circle class="cls-3" cx="750" cy="505.51" r="851.51"/></g><g class="cls-1"><circle class="cls-2" cx="738.95" cy="501.73" r="795.55"/><circle class="cls-3" cx="738.95" cy="501.73" r="795.55"/></g><g class="cls-1"><circle class="cls-2" cx="735.5" cy="505" r="734"/><circle class="cls-3" cx="735.5" cy="505" r="734"/></g><g class="cls-1"><circle class="cls-2" cx="737.96" cy="519.29" r="662.38"/><circle class="cls-3" cx="737.96" cy="519.29" r="662.38"/></g><g class="cls-1"><circle class="cls-2" cx="737.45" cy="523.07" r="600.93"/><circle class="cls-3" cx="737.45" cy="523.07" r="600.93"/></g><g class="cls-1"><circle class="cls-2" cx="736.95" cy="520.41" r="536.46"/><circle class="cls-3" cx="736.95" cy="520.41" r="536.46"/></g><g class="cls-1"><circle class="cls-2" cx="745.83" cy="529.19" r="406.39"/><circle class="cls-3" cx="745.83" cy="529.19" r="406.39"/></g><g class="cls-1"><circle class="cls-2" cx="745.47" cy="533.86" r="349.96"/><circle class="cls-3" cx="745.47" cy="533.86" r="349.96"/></g><g class="cls-4"><circle class="cls-2" cx="741.55" cy="522.23" r="465.09"/><circle class="cls-3" cx="741.55" cy="522.23" r="465.09"/></g><g class="cls-1"><circle class="cls-2" cx="747.5" cy="536" r="280"/><circle class="cls-3" cx="747.5" cy="536" r="280"/></g></svg>